<svg width="32" height="32" viewBox="0 0 32 32" fill="none" xmlns="http://www.w3.org/2000/svg">
<rect x="0.716797" y="0.75293" width="30.3763" height="30.3763" rx="5.95613" fill="#E6E6E6"/>
<path d="M21.3736 20.9529H19.2416V17.647C19.2416 16.8586 19.2274 15.8438 18.1327 15.8438C17.0223 15.8438 16.8524 16.7027 16.8524 17.5896V20.9527H14.7203V14.1543H16.7671V15.0834H16.7957C17.0006 14.7366 17.2965 14.4513 17.6522 14.2579C18.0078 14.0645 18.4097 13.9703 18.8152 13.9852C20.9761 13.9852 21.3745 15.3925 21.3745 17.2234L21.3736 20.9529ZM12.3147 13.225C12.07 13.225 11.8307 13.1532 11.6272 13.0186C11.4238 12.8841 11.2652 12.6928 11.1715 12.4689C11.0778 12.2451 11.0532 11.9988 11.1009 11.7611C11.1486 11.5235 11.2664 11.3052 11.4394 11.1338C11.6124 10.9625 11.8329 10.8458 12.0729 10.7984C12.3129 10.7511 12.5616 10.7753 12.7877 10.868C13.0138 10.9607 13.2071 11.1177 13.3431 11.3191C13.479 11.5206 13.5517 11.7574 13.5517 11.9997C13.5517 12.1606 13.5197 12.3199 13.4576 12.4685C13.3954 12.6172 13.3043 12.7522 13.1895 12.866C13.0746 12.9798 12.9382 13.0701 12.7881 13.1316C12.638 13.1932 12.4771 13.225 12.3147 13.225ZM13.3807 20.9529H11.2464V14.1543H13.3807V20.9529ZM22.4365 8.81445H10.1751C9.89678 8.81134 9.62861 8.91776 9.42951 9.11032C9.23041 9.30288 9.11668 9.56582 9.11328 9.84138V22.0324C9.11656 22.3081 9.23023 22.5712 9.42932 22.764C9.62841 22.9568 9.89664 23.0634 10.1751 23.0605H22.4365C22.7155 23.0639 22.9845 22.9576 23.1844 22.7648C23.3843 22.5721 23.4987 22.3087 23.5025 22.0324V9.8405C23.4986 9.5644 23.3841 9.30115 23.1842 9.1086C22.9843 8.91604 22.7154 8.80993 22.4365 8.81357" fill="#818181"/>
</svg>
