<svg width="31" height="32" viewBox="0 0 31 32" fill="none" xmlns="http://www.w3.org/2000/svg">
<rect y="0.75293" width="30.3763" height="30.3763" rx="5.95613" fill="#E6E6E6"/>
<path d="M14.6392 13.3966C14.6392 13.3966 11.1746 14.2001 7.30844 9.68085C7.30844 9.68085 5.80213 12.6434 8.4133 14.4508C8.4133 14.4508 7.56009 14.6015 6.85637 14.0997C6.85637 14.0997 6.55499 16.6602 9.66826 17.6645H8.01126C8.01126 17.6645 8.46363 19.7232 11.3756 20.175C11.3756 20.175 10.1707 21.7816 6.25391 21.6813C6.25391 21.6813 8.46363 23.3883 11.828 23.338C11.828 23.338 18.0536 23.6393 21.0162 16.6096C21.7446 14.8809 21.669 13.2459 21.6186 12.4421L23.5267 10.7354L21.6186 11.0868C21.6186 11.0868 22.9242 10.1329 23.0752 9.22908L20.9661 10.0826C20.9661 10.0826 19.3845 8.65164 16.698 9.22908C16.6977 9.22908 14.2378 9.73118 14.6392 13.3966Z" fill="#818181"/>
</svg>
