<svg width="281" height="273" viewBox="0 0 281 273" fill="none" xmlns="http://www.w3.org/2000/svg">
<path d="M144.2 0.296663C72.6025 -1.81746 10.5837 50.1335 1.2137 118.3C-9.03099 192.83 46.9692 262.772 116.735 270.631C271.169 288.026 286.735 206.704 279.219 122.86C273.557 59.6905 216.981 2.44586 144.2 0.296663Z" fill="#FBFBFB"/>
<path d="M142.766 230.653C160.198 232.744 182.704 232.92 205.095 225.694C210.81 223.85 246.11 212.459 243.874 196.715C243.086 191.169 238.306 189.767 237.123 182.37C235.722 173.606 241.536 169.965 246.431 159.794C249.352 153.725 257.9 135.963 247.979 124.471C242.051 117.604 229.796 113.287 219.966 114.44C205.547 116.13 199.171 129.258 188.766 151.657C179.543 171.513 180.74 176.779 173.849 190.961C168.735 201.487 159.733 215.757 142.766 230.653Z" fill="#DDDDDD"/>
<mask id="mask0_6550_29766" style="mask-type:luminance" maskUnits="userSpaceOnUse" x="142" y="114" width="111" height="118">
<path d="M142.765 230.653C160.197 232.744 182.703 232.92 205.095 225.694C210.809 223.85 246.109 212.459 243.873 196.715C243.085 191.169 238.305 189.767 237.122 182.37C235.721 173.606 241.535 169.965 246.43 159.794C249.351 153.725 257.899 135.963 247.978 124.471C242.05 117.604 229.795 113.287 219.965 114.44C205.546 116.13 199.17 129.258 188.765 151.657C179.542 171.513 180.739 176.779 173.848 190.961C168.734 201.487 159.732 215.757 142.765 230.653Z" fill="white"/>
</mask>
<g mask="url(#mask0_6550_29766)">
<g opacity="0.5">
<path d="M140.271 231.344C134.611 233.132 128.812 234.399 122.881 235.139C104.712 237.405 86.0416 234.856 67.3896 227.561L67.717 226.724C86.2281 233.964 104.75 236.495 122.77 234.247C187.245 226.204 218.096 157.496 226.015 136.63C230.505 124.797 231.43 111.235 228.764 96.3223L229.648 96.1641C232.344 111.24 231.404 124.962 226.855 136.949C220.333 154.133 208.362 179.034 188.369 200.074C173.841 215.361 157.72 225.832 140.271 231.344Z" fill="white"/>
<path d="M210.259 170.562L210.042 170.221C209.874 169.957 193.286 143.469 203.383 117.473L204.22 117.798C194.907 141.778 208.694 166.22 210.59 169.394C250.191 149.538 252.931 122.053 252.823 114.083C252.82 113.862 252.822 113.724 252.828 113.674L253.72 113.774C253.717 113.821 253.719 113.921 253.722 114.071C253.831 122.199 251.046 150.279 210.621 170.382L210.259 170.562Z" fill="white"/>
<path d="M230.574 200.254C221.161 203.228 207.143 204.843 188.26 199.849L188.028 199.787L187.951 199.56C187.873 199.336 180.319 176.782 185.801 147.905L191.325 118.811L192.208 118.978L186.684 148.073C181.541 175.161 187.956 196.62 188.727 199.042C210.868 204.846 226.183 201.466 235.144 197.598C244.854 193.407 249.359 187.786 249.404 187.73L250.109 188.286C249.922 188.523 245.417 194.143 235.5 198.423C234.028 199.059 232.386 199.682 230.574 200.254Z" fill="white"/>
</g>
</g>
<g opacity="0.3">
<path d="M165.712 223.096C157.356 213.353 146.618 197.838 143.241 177.183C138.811 150.094 150.932 137.965 154.564 93.3117C156.861 65.0778 158.179 45.3509 145.128 33.3052C134.901 23.8656 117.073 20.2732 105.317 26.7159C95.5419 32.0728 88.8197 44.9949 86.1695 54.4519C84.0095 62.1593 84.4404 67.9728 79.4664 71.6162C74.3832 75.3397 69.6512 72.405 64.9873 75.0652C55.529 80.4601 58.3224 102.037 58.774 105.524C63.7961 144.315 95.8558 173.592 109.994 186.194C121.684 196.614 139.979 210.794 165.712 223.096Z" fill="#CACACA"/>
<mask id="mask1_6550_29766" style="mask-type:luminance" maskUnits="userSpaceOnUse" x="58" y="23" width="108" height="201">
<path d="M165.712 223.096C157.356 213.353 146.618 197.838 143.241 177.183C138.811 150.094 150.932 137.965 154.564 93.3117C156.861 65.0778 158.179 45.3509 145.128 33.3052C134.901 23.8656 117.073 20.2732 105.317 26.7159C95.5419 32.0728 88.8197 44.9949 86.1695 54.4519C84.0095 62.1593 84.4404 67.9728 79.4664 71.6162C74.3832 75.3397 69.6512 72.405 64.9873 75.0652C55.529 80.4601 58.3224 102.037 58.774 105.524C63.7961 144.315 95.8558 173.592 109.994 186.194C121.684 196.614 139.979 210.794 165.712 223.096Z" fill="white"/>
</mask>
<g mask="url(#mask1_6550_29766)">
<path d="M175.468 231.467C159.893 223.529 146.708 214.644 136.279 205.058C120.822 190.85 111.9 175.48 109.763 159.375C108.093 146.787 110.645 133.647 113.875 117.01C116.553 103.222 119.691 93.7032 122.459 85.3051C126.035 74.455 128.86 65.8851 128.939 53.0752C129.019 40.0557 126.162 26.7871 120.445 13.6386L121.636 13.1211C127.425 26.4365 130.318 39.8817 130.237 53.0833C130.157 66.0975 127.304 74.7529 123.692 85.7114C120.936 94.073 117.812 103.55 115.15 117.257C111.817 134.424 109.408 146.826 111.05 159.204C113.146 175 121.93 190.106 137.158 204.103C147.5 213.608 160.587 222.426 176.058 230.31L175.468 231.467Z" fill="white"/>
<path d="M116.228 107.82L116.095 107.098C111.348 81.2095 99.6404 64.0651 90.6541 54.2418C80.9329 43.6143 72.2528 39.0552 72.166 39.0103L72.7634 37.8574C72.8516 37.9033 81.7366 42.5696 91.612 53.3654C100.627 63.2203 112.345 80.3418 117.234 106.121C119.605 105.258 127.709 101.991 136.228 94.9272C145.518 87.2225 157.224 73.2845 160.227 50.6376L161.514 50.8082C158.452 73.897 146.5 88.1069 137.014 95.9618C126.734 104.473 117.025 107.57 116.928 107.601L116.228 107.82Z" fill="white"/>
<path d="M110.349 145.078L109.914 144.897C98.01 139.952 85.6108 124.324 73.0606 98.4449C63.7455 79.238 57.8215 61.2356 57.7627 61.056L58.997 60.6523C59.2292 61.3625 82.4323 131.444 109.983 143.515C111.834 141.401 121.646 130.405 133.465 121.086C139.013 116.711 147.705 113.457 159.298 111.415C167.899 109.9 174.983 109.657 175.054 109.654L175.095 110.952C174.818 110.961 147.121 111.971 134.269 122.105C121.295 132.334 110.761 144.597 110.656 144.719L110.349 145.078Z" fill="white"/>
<path d="M132.788 201.346L131.527 201.055C131.392 201.024 117.795 197.839 100.489 189.614C84.5098 182.019 61.993 168.445 45.4679 146.913L13.6289 105.427L14.6583 104.637L46.4973 146.122C62.858 167.44 85.1747 180.894 101.015 188.426C115.189 195.166 126.845 198.497 130.571 199.475C125.201 186.119 128.013 172.55 138.746 160.153C147.044 150.568 157.272 144.977 157.374 144.922L157.992 146.064C157.891 146.118 147.846 151.614 139.705 161.029C128.866 173.563 126.364 186.729 132.267 200.162L132.788 201.346Z" fill="white"/>
</g>
</g>
<g opacity="0.3">
<path d="M136.613 169.222C118.97 173.618 95.8673 176.7 71.9281 172.161C65.8189 171.003 28.0783 163.848 28.3469 147.382C28.4416 141.582 33.1725 139.525 33.4346 131.773C33.7451 122.587 27.3016 119.595 20.9606 109.775C17.1771 103.915 6.10417 86.766 14.8167 73.6793C20.0231 65.8591 32.0593 59.8432 42.3087 59.7606C57.3425 59.6394 65.5862 72.3068 79.1641 93.9815C91.2005 113.195 90.6489 118.76 99.5576 132.445C106.17 142.601 117.259 156.103 136.613 169.222Z" fill="#DDDDDD"/>
<mask id="mask2_6550_29766" style="mask-type:luminance" maskUnits="userSpaceOnUse" x="11" y="59" width="126" height="116">
<path d="M136.613 169.222C118.97 173.618 95.8673 176.7 71.9281 172.161C65.8189 171.003 28.0783 163.848 28.3469 147.382C28.4416 141.582 33.1725 139.525 33.4346 131.773C33.7451 122.587 27.3016 119.595 20.9606 109.775C17.1771 103.915 6.10417 86.766 14.8167 73.6793C20.0231 65.8591 32.0593 59.8432 42.3087 59.7606C57.3425 59.6394 65.5862 72.3068 79.1641 93.9815C91.2005 113.195 90.6489 118.76 99.5576 132.445C106.17 142.601 117.259 156.103 136.613 169.222Z" fill="white"/>
</mask>
<g mask="url(#mask2_6550_29766)">
<path d="M157.555 171.606C132.229 171.607 108.023 162.299 85.602 143.941C62.303 124.864 46.7667 100.78 37.8366 83.9364C31.5881 72.1509 28.8409 58.1138 29.6709 42.2148L31.2682 42.2983C30.4527 57.9041 33.1382 71.6614 39.2489 83.1875C48.1108 99.9017 63.5215 123.795 86.6146 142.703C108.742 160.821 132.609 170.007 157.556 170.007C157.578 170.007 157.6 170.007 157.623 170.007C176.372 169.994 195.025 165.02 213.063 155.221L213.826 156.626C195.551 166.553 176.642 171.593 157.624 171.606C157.603 171.606 157.577 171.606 157.555 171.606Z" fill="white"/>
<path d="M59.6879 116.59L59.0097 116.353C14.6942 100.842 8.18256 72.1824 7.24269 63.768C7.22759 63.6305 7.21765 63.5354 7.20898 63.4856L8.76667 63.1264C8.7806 63.1824 8.80388 63.3389 8.83184 63.5905C9.74093 71.7266 16.0361 99.343 58.8423 114.598C60.7431 110.156 70.912 84.0871 58.6254 61.34L60.0318 60.5801C73.8371 86.1382 60.1359 115.646 59.9963 115.941L59.6879 116.59Z" fill="white"/>
<path d="M53.5776 150.62C46.8823 150.62 41.3654 149.626 37.0792 148.381C26.2571 145.238 20.8443 139.987 20.6191 139.765L21.7412 138.626C21.7941 138.678 27.1546 143.856 37.6247 146.874C47.2405 149.646 63.2456 151.109 85.0172 142.426C85.607 139.126 89.1003 116.688 80.5234 90.1338L71.0978 60.9504L72.6194 60.459L82.0449 89.6423C91.4275 118.691 86.5545 142.926 86.5045 143.167L86.4172 143.586L86.0205 143.746C73.2553 148.895 62.3953 150.62 53.5776 150.62Z" fill="white"/>
</g>
</g>
<path d="M277.128 233.884L6.50293 231.527V238.501C6.50293 240.394 7.68332 242.004 9.28192 242.29L85.8067 256.023C86.7149 256.186 87.6359 256.229 88.5523 256.152L274.187 240.494C275.845 240.355 277.128 238.74 277.128 236.795V233.884Z" fill="url(#paint0_linear_6550_29766)"/>
<path d="M190.011 222.58L9.48205 235.338C6.25163 235.566 3.625 233.14 3.625 229.919V100.862C3.625 97.6407 6.25163 95.0293 9.48205 95.0293H190.011C192.672 95.0293 194.824 97.3899 194.824 100.302V216.967C194.824 219.879 192.672 222.392 190.011 222.58Z" fill="url(#paint1_linear_6550_29766)"/>
<path d="M192.889 222.58L12.36 235.338C9.12947 235.566 6.50293 233.14 6.50293 229.919V100.862C6.50293 97.6407 9.12947 95.0293 12.36 95.0293H192.889C195.55 95.0293 197.702 97.3899 197.702 100.302V216.967C197.702 219.879 195.55 222.392 192.889 222.58Z" fill="url(#paint2_linear_6550_29766)"/>
<path d="M187.266 214.354L19.1217 225.436C16.4928 225.609 14.3564 223.618 14.3564 220.988V107.999C14.3564 105.369 16.4928 103.228 19.1217 103.217L187.266 102.522C189.461 102.512 191.237 104.447 191.237 106.842V209.755C191.237 212.15 189.461 214.209 187.266 214.354Z" fill="#BFBFBF"/>
<path d="M188.384 222L6.50293 235.429L85.8067 249.66C86.7149 249.823 87.6359 249.867 88.5523 249.789L277.128 233.884L191.278 222.091C190.318 221.96 189.349 221.929 188.384 222Z" fill="url(#paint3_linear_6550_29766)"/>
<path opacity="0.3" d="M33.043 235.768L184.465 224.422L231.328 230.807L81.211 242.936L33.043 235.768Z" fill="url(#paint4_linear_6550_29766)"/>
<path opacity="0.48" d="M149.393 187.184C135.476 179.696 124.533 189.184 113.972 179.822C107.57 174.147 110.713 169.914 102.835 161.433C94.109 152.039 88.4279 155.196 79.6587 146.742C68.5705 136.051 74.1162 127.734 64.5651 120.058C52.9783 110.747 40.4825 119.365 29.4525 110.435C24.6953 106.584 22.085 100.984 20.722 95.0293H9.92984C8.0387 95.0293 6.50293 96.562 6.50293 98.4529V232.231C6.50293 234.122 8.0387 235.546 9.92984 235.412L193.918 222.352C194.821 222.288 195.622 221.761 196.136 220.996C182.667 220.505 174.393 215.99 169.104 211.323C158.757 202.192 160.551 193.187 149.393 187.184Z" fill="white"/>
<path opacity="0.5" d="M111.756 199.114C104.55 199.244 97.3726 197.58 91.0108 194.285C84.1426 190.731 78.3902 185.406 74.4024 178.883C70.5375 172.56 68.4883 165.308 68.4883 157.93C68.4883 134.791 88.1443 116.478 111.756 117.093C134.783 117.693 153.1 136.159 153.1 158.27C153.1 180.38 134.783 198.699 111.756 199.114Z" fill="white"/>
<path d="M149.524 158.256C149.524 178.485 132.804 195.155 111.756 195.493C104.943 195.603 98.5008 193.993 92.8639 191.06C86.614 187.812 81.3757 182.942 77.759 177.013C74.35 171.423 72.3896 164.906 72.3896 157.946C72.3896 136.861 90.2198 120.196 111.756 120.715C132.804 121.223 149.524 138.027 149.524 158.256Z" fill="white"/>
<path d="M135.898 152.262L135.887 163.006C135.883 164.035 135.468 165.018 134.726 165.744L125.369 174.919C124.615 175.656 123.59 176.075 122.524 176.074L108.363 176.075C108.363 176.075 98.6368 185.465 92.8637 191.058C86.6137 187.81 81.3755 182.94 77.7588 177.011C83.5866 171.417 93.5644 161.806 93.5644 161.806L93.5073 147.877C93.5034 146.82 93.9413 145.808 94.721 145.071L104.386 135.902C105.154 135.177 106.191 134.78 107.268 134.797L118.482 134.99C119.408 135.005 120.244 135.563 120.6 136.401C120.951 137.243 120.755 138.199 120.1 138.827L109.415 149.064C108.464 149.973 108.46 151.468 109.412 152.396L113.237 156.136L114.291 157.164L118.096 160.888C119.038 161.807 120.563 161.81 121.502 160.897L132.049 150.661C132.695 150.033 133.665 149.852 134.511 150.202C135.352 150.552 135.901 151.365 135.898 152.262Z" fill="url(#paint5_linear_6550_29766)"/>
<path d="M95.5524 203.073C98.4826 201.449 97.6249 192.232 93.6493 185.755C88.0046 176.559 75.6329 172.169 73.0967 174.908C70.501 177.711 77.9727 188.233 79.1864 189.942C83.5893 196.142 92.0863 204.994 95.5524 203.073Z" fill="url(#paint6_linear_6550_29766)"/>
<path d="M122.056 261.815C121.508 262.419 121.384 263.532 121.859 264.08C122.327 264.619 123.03 264.215 125.025 264.275C127.162 264.338 127.72 264.843 129.171 264.442C129.758 264.28 130.794 263.887 130.774 263.468C130.76 263.174 130.233 263.021 128.471 262.431C125.971 261.594 125.982 261.548 125.451 261.46C124.117 261.239 122.778 261.017 122.056 261.815Z" fill="url(#paint7_linear_6550_29766)"/>
<path d="M123.424 258.332L124.496 261.897C124.415 262.088 123.325 262.726 122.39 262.322L120.799 258.862L123.424 258.332Z" fill="url(#paint8_linear_6550_29766)"/>
<path d="M108.505 264.95C107.957 265.554 107.833 266.667 108.309 267.215C108.776 267.754 109.48 267.35 111.474 267.409C113.611 267.473 114.169 267.978 115.62 267.577C116.207 267.415 117.243 267.022 117.223 266.603C117.209 266.309 116.682 266.156 114.92 265.566C112.42 264.729 112.431 264.683 111.9 264.595C110.567 264.374 109.227 264.152 108.505 264.95Z" fill="url(#paint9_linear_6550_29766)"/>
<path d="M109.874 261.465L110.946 265.03C110.865 265.221 109.776 265.859 108.841 265.454L107.249 261.995L109.874 261.465Z" fill="url(#paint10_linear_6550_29766)"/>
<path d="M49.5937 175.504C52.9935 174.346 58.1891 172.999 64.5886 173C71.7937 173.001 77.5801 173.001 81.5755 176.407C91.2723 184.672 80.419 204.467 85.9789 219.127C86.5878 220.733 88.3598 225.823 86.8186 231.314C86.5345 232.326 85.9496 233.202 84.9492 234.687C79.0758 243.401 62.5777 244.115 55.0199 236.56C51.0256 232.567 47.4343 233.298 47.3382 228.742C46.9592 210.758 49.7495 192.819 49.5937 175.504Z" fill="url(#paint11_linear_6550_29766)"/>
<path opacity="0.4" d="M53.7763 197.15C52.4028 193.389 53.826 189.084 50.7637 187.205C49.6416 186.517 48.2467 186.225 46.7275 186.258C46.9093 199.477 47.1694 212.682 47.491 226.477C47.5972 231.033 48.1669 231.259 52.5835 235.251C57.7009 239.878 66.5196 241.388 74.0834 239.875C64.1773 233.782 57.1094 227.472 58.1216 222.063C59.3005 215.763 70.8367 213.903 70.3725 209.424C69.8803 204.677 56.7787 205.37 53.7763 197.15Z" fill="url(#paint12_linear_6550_29766)"/>
<path d="M52.7446 175.909C49.4142 173.661 41.3903 179.331 36.9423 184.322C34.8749 186.642 27.677 194.718 29.4654 205.567C29.7568 207.335 31.0986 215.601 38.1745 219.65C44.5101 223.275 53.0651 222.343 59.9194 217.208C60.8559 216.377 61.7929 215.546 62.7296 214.715C63.6513 213.719 64.5729 212.722 65.4943 211.726C64.0456 210.521 61.5842 208.783 58.1275 207.668C52.8601 205.968 49.3971 208.49 48.1374 206.829C46.5863 204.786 51.3082 200.978 52.5471 192.315C52.8813 189.977 56.4645 178.421 52.7446 175.909Z" fill="url(#paint13_linear_6550_29766)"/>
<path d="M58.2086 232.48C56.0078 239.642 60.0826 236.73 68.3813 232.641C77.1214 228.335 96.2268 222.152 104.459 230.251C110.591 236.284 106.253 245.822 115.739 256.321C117.41 258.171 118.994 259.463 119.984 260.212C121.693 259.505 123.403 258.798 125.112 258.09C125.783 254.173 127.896 239.074 118.392 225.55C116.094 222.281 111.724 216.003 104.244 213.348C84.0234 206.169 60.238 225.874 58.2086 232.48Z" fill="url(#paint14_linear_6550_29766)"/>
<path d="M50.1391 225.798C48.7143 229.911 49.9967 234.639 52.3247 237.576C57.4927 244.097 69.0944 243.411 76.341 241.003C85.1583 238.073 87.1276 232.737 90.5951 234.049C95.9831 236.087 92.1494 249.354 101.875 260.119C103.546 261.968 105.13 263.26 106.119 264.01C107.829 263.302 109.538 262.595 111.248 261.887C112.539 252.766 111.596 245.458 110.612 240.79C109.485 235.437 108.475 230.642 104.703 226.017C100.017 220.271 93.8937 218.253 90.3802 217.145C75.5151 212.458 53.8411 215.109 50.1391 225.798Z" fill="url(#paint15_linear_6550_29766)"/>
<path d="M98.3361 214.675L58.207 214.076L68.878 219.226L98.4388 217.292L98.3361 214.675Z" fill="url(#paint16_linear_6550_29766)"/>
<path d="M56.791 215.143V215.144C56.791 215.895 57.261 216.566 57.9668 216.822L70.7895 221.849L70.8479 218.364L58.2074 214.077C57.498 213.873 56.791 214.406 56.791 215.143Z" fill="url(#paint17_linear_6550_29766)"/>
<path d="M62.5199 213.533C62.2737 213.478 63.7198 210.597 64.8551 210.929C65.9901 211.262 71.5426 214.479 72.0473 215.805C72.5521 217.129 72.5521 217.129 72.5521 217.129C72.5521 217.129 70.1302 217.319 68.6281 216.814C67.1257 216.309 64.5227 213.979 62.5199 213.533Z" fill="url(#paint18_linear_6550_29766)"/>
<path d="M71.913 193.912L69.0845 219.666C68.9869 220.555 70.231 221.879 71.1239 221.837L112.62 219.289C113.301 219.257 113.869 218.755 113.984 218.082L119.193 193.208C119.348 192.302 117.721 191.367 116.803 191.393L73.318 192.616C72.5921 192.636 71.9924 193.189 71.913 193.912Z" fill="url(#paint19_linear_6550_29766)"/>
<path d="M72.862 194.661L70.0333 220.416C69.9359 221.305 70.6554 222.07 71.5484 222.028L113.569 220.039C114.251 220.007 114.818 219.505 114.934 218.832L119.227 193.844C119.382 192.938 118.67 192.117 117.752 192.143L74.2672 193.366C73.5411 193.386 72.9412 193.939 72.862 194.661Z" fill="url(#paint20_linear_6550_29766)"/>
<path opacity="0.3" d="M97.5355 214.004C93.8664 212.449 95.1615 209.483 90.8288 205.788C85.1129 200.913 79.2869 203.027 77.2473 199.249C76.6123 198.072 76.3088 196.241 77.4152 193.277L74.2663 193.366C73.5402 193.386 72.9404 193.939 72.8611 194.661L70.0323 220.416C69.935 221.305 70.6545 222.07 71.5474 222.028L113.568 220.039C114.25 220.007 114.817 219.505 114.933 218.832L115.525 215.384C114.25 214.675 112.727 214.029 110.949 213.669C104.784 212.418 101.76 215.794 97.5355 214.004Z" fill="url(#paint21_linear_6550_29766)"/>
<path d="M65.2607 163.154C65.283 165.825 64.985 167.944 64.7031 169.395C64.3802 171.057 64.1476 171.486 63.8505 171.835C63.4035 172.359 62.7261 172.799 58.8985 173.748C56.8155 174.265 56.5476 174.251 56.5016 174.457C56.2772 175.466 61.9569 178.902 67.8246 178.074C71.4159 177.567 74.6833 175.518 74.4828 174.442C74.281 173.359 70.6936 173.94 69.6245 171.981C68.8808 170.619 69.7145 168.684 70.7001 167.082C69.7456 165.294 66.215 164.943 65.2607 163.154Z" fill="url(#paint22_linear_6550_29766)"/>
<path d="M72.7974 166.55C73.9013 165.675 74.4473 163.786 73.8153 162.337C73.2715 161.091 72.0302 160.61 71.2871 160.322C69.1337 159.487 66.091 159.685 64.5842 161.474C63.6915 162.535 64.2852 165.376 64.363 165.879C64.4513 166.449 64.807 166.729 65.0778 167.212C65.4529 167.883 66.0367 168.945 66.9807 170.714C67.1925 170.32 67.4836 169.839 67.8776 169.339C68.0293 169.146 68.6321 168.397 69.3931 167.843C70.9177 166.734 71.751 167.381 72.7974 166.55Z" fill="url(#paint23_linear_6550_29766)"/>
<path d="M65.4163 169.025C65.4163 169.025 66.2522 171.8 69.2075 172.368C71.8534 172.876 73.7541 167.141 72.4149 165.47C71.9679 164.912 70.9022 164.451 69.9335 164.469C69.3612 164.48 69.123 164.654 68.1878 164.653C67.325 164.653 67.1201 164.504 66.8227 164.645C66.4507 164.823 66.0632 165.394 66.1285 167.232C65.7629 166.601 65.2174 166.252 64.7432 166.342C64.6676 166.356 64.4573 166.431 64.3088 166.589C63.7715 167.161 64.1585 168.17 65.4163 169.025Z" fill="url(#paint24_linear_6550_29766)"/>
<path d="M66.7957 164.266C66.8969 164.392 66.3913 164.76 66.1902 165.415C65.7996 166.687 66.6994 168.57 67.9933 169.047C68.7583 169.329 69.0974 168.912 70.4311 169.112C71.2568 169.237 71.8992 169.513 72.2961 169.715C72.3366 171.232 71.5866 172.538 70.4738 172.945C69.2758 173.383 68.09 172.619 67.5944 172.3C67.2628 172.086 66.1996 171.404 65.8697 170.18C65.5262 168.905 66.3215 168.397 65.7911 167.457C65.5237 166.983 65.0855 166.693 64.8082 165.838C64.7329 165.605 64.6939 165.407 64.6729 165.275C65.5294 164.738 66.6493 164.083 66.7957 164.266Z" fill="url(#paint25_linear_6550_29766)"/>
<path d="M71.2157 169.991C71.2157 169.991 70.5772 170.138 69.6205 169.831C69.5739 169.816 69.5182 169.816 69.5058 169.839C69.4595 169.925 69.9749 170.5 70.5908 170.489C71.0282 170.48 71.4459 170.177 71.4166 170.064C71.4041 170.017 71.3106 169.998 71.2157 169.991Z" fill="url(#paint26_linear_6550_29766)"/>
<path d="M245.311 70.8573C245.311 93.9382 227.263 112.095 204.196 111.387C180.19 110.649 160 89.9164 160 65.1058C160 40.2953 180.19 22.2847 204.196 24.7844C227.263 27.1863 245.311 47.7763 245.311 70.8573Z" fill="url(#paint27_linear_6550_29766)"/>
<path d="M251.544 68.8671C251.544 91.948 233.496 110.105 210.429 109.396C186.422 108.659 166.232 87.9262 166.232 63.1157C166.232 38.3051 186.422 20.2945 210.429 22.7942C233.496 25.1961 251.544 45.7862 251.544 68.8671Z" fill="url(#paint28_linear_6550_29766)"/>
<path d="M249.734 68.7451C249.734 90.8096 232.465 108.137 210.429 107.424C187.538 106.683 168.318 86.8962 168.318 63.2562C168.318 39.6162 187.538 22.4215 210.429 24.7668C232.465 27.0245 249.734 46.6806 249.734 68.7451Z" fill="url(#paint29_linear_6550_29766)"/>
<path opacity="0.53" d="M247.826 68.6164C247.826 87.9919 233.826 103.513 215.203 105.252C213.638 105.399 212.036 105.448 210.411 105.394C188.659 104.663 170.417 85.8493 170.417 63.399C170.417 43.8763 184.21 28.9658 202.113 26.8559C204.796 26.5397 207.576 26.507 210.411 26.7959C231.373 28.9168 247.826 47.6108 247.826 68.6164Z" fill="white"/>
<path d="M215.203 105.252C213.638 105.399 212.036 105.448 210.411 105.393C188.659 104.663 170.417 85.8489 170.417 63.3985C170.417 43.8758 184.21 28.9653 202.113 26.8555C208.159 31.5767 213.573 37.6172 214.505 44.7754C216.026 56.4422 204.37 61.8121 203.084 74.4929C202.026 84.9548 207.036 96.6107 215.203 105.252Z" fill="url(#paint30_linear_6550_29766)"/>
<path d="M220.091 76.3569L217.949 75.9376C217.957 74.9506 217.882 73.9632 217.723 72.987L219.787 72.2667C220.343 72.0725 220.637 71.4566 220.442 70.8908L219.221 67.3462C219.025 66.7783 218.414 66.4749 217.856 66.6688L215.783 67.3888C215.307 66.5299 214.75 65.7061 214.12 64.924L215.559 63.2367C215.945 62.7837 215.893 62.0944 215.442 61.6968L212.618 59.2051C212.165 58.8058 211.484 58.8503 211.097 59.3045L209.654 60.9969C208.796 60.4712 207.906 60.0247 206.992 59.6647L207.395 57.4592C207.504 56.8644 207.115 56.2851 206.526 56.1653L202.837 55.4145C202.245 55.2943 201.678 55.6804 201.57 56.2767L201.17 58.4855C200.176 58.4608 199.183 58.5243 198.202 58.6731L197.45 56.5406C197.246 55.9633 196.621 55.6527 196.053 55.8472L192.496 57.0652C191.927 57.2602 191.632 57.8868 191.837 58.4645L192.588 60.5768C191.724 61.0546 190.899 61.6175 190.118 62.2562L188.424 60.7866C187.96 60.3844 187.267 60.4294 186.876 60.8877L184.432 63.7535C184.042 64.2118 184.102 64.9084 184.567 65.3094L186.252 66.7622C185.736 67.6374 185.302 68.5461 184.958 69.4795L182.803 69.0577C182.205 68.9406 181.635 69.3291 181.529 69.9254L180.871 73.6499C180.766 74.2448 181.166 74.8205 181.763 74.9358L183.905 75.3496C183.902 76.3613 183.99 77.3722 184.163 78.3704L182.127 79.0776C181.558 79.2753 181.264 79.898 181.472 80.4682L182.766 84.0272C182.973 84.5954 183.6 84.895 184.167 84.697L186.182 83.9938C186.68 84.8649 187.262 85.6973 187.918 86.4849L186.538 88.1033C186.151 88.5577 186.21 89.2425 186.671 89.6327L189.543 92.0677C190.002 92.4563 190.686 92.4038 191.073 91.9508L192.449 90.3372C193.326 90.8549 194.234 91.2916 195.165 91.6384L194.789 93.719C194.683 94.304 195.073 94.8665 195.66 94.9753L199.324 95.6549C199.909 95.7633 200.469 95.3784 200.575 94.795L200.957 92.7047C201.952 92.7133 202.944 92.6361 203.923 92.4716L204.636 94.4795C204.835 95.0383 205.448 95.3311 206.006 95.1338L209.488 93.9016C210.045 93.7048 210.336 93.0929 210.139 92.5343L209.428 90.5182C210.276 90.0368 211.086 89.474 211.853 88.836L213.479 90.2379C213.926 90.6236 214.599 90.5721 214.982 90.1229L217.377 87.314C217.761 86.8649 217.709 86.1871 217.263 85.8001L215.628 84.3821C216.131 83.5239 216.556 82.634 216.894 81.7198L219.013 82.1289C219.59 82.2405 220.147 81.858 220.256 81.2743L220.94 77.6209C221.049 77.0361 220.669 76.4702 220.091 76.3569ZM209.322 82.852C205.437 87.4083 198.572 87.9247 193.965 83.9839C189.33 80.0191 188.736 73.0532 192.664 68.4467C196.592 63.8402 203.52 63.3785 208.112 67.3934C212.677 71.3842 213.208 78.2955 209.322 82.852Z" fill="white"/>
<path d="M233.759 47.6893L232.567 47.4537C232.558 46.9195 232.503 46.3848 232.401 45.856L233.535 45.4742C233.84 45.3713 233.994 45.0391 233.878 44.7323L233.154 42.8108C233.037 42.5032 232.695 42.337 232.389 42.4398L231.251 42.8216C230.976 42.3558 230.657 41.9089 230.298 41.4842L231.071 40.5778C231.279 40.3344 231.241 39.962 230.986 39.7458L229.391 38.392C229.136 38.1752 228.76 38.197 228.552 38.4409L227.778 39.3493C227.297 39.063 226.8 38.8194 226.29 38.6223L226.484 37.4343C226.536 37.1141 226.314 36.8007 225.987 36.7344L223.943 36.3191C223.615 36.2526 223.308 36.4589 223.256 36.7798L223.064 37.9687C222.516 37.9524 221.969 37.9835 221.43 38.0606L220.989 36.9099C220.87 36.5984 220.521 36.4293 220.211 36.5324L218.269 37.1774C217.958 37.2807 217.803 37.6171 217.923 37.9287L218.362 39.0685C217.893 39.323 217.446 39.6236 217.024 39.965L216.074 39.1681C215.814 38.9501 215.434 38.9722 215.224 39.2177L213.916 40.7525C213.706 40.998 213.748 41.3734 214.008 41.5908L214.953 42.3793C214.679 42.849 214.452 43.3371 214.273 43.839L213.084 43.6039C212.754 43.5386 212.445 43.7458 212.394 44.0668L212.076 46.0717C212.026 46.3921 212.252 46.7041 212.582 46.7687L213.765 47.0002C213.776 47.546 213.836 48.0919 213.944 48.6314L212.832 49.0047C212.521 49.109 212.367 49.4438 212.488 49.7524L213.243 51.6798C213.363 51.9875 213.712 52.1523 214.022 52.0478L215.124 51.6769C215.408 52.1498 215.739 52.6023 216.111 53.0312L215.37 53.8998C215.162 54.1438 215.203 54.5143 215.461 54.7276L217.075 56.0589C217.333 56.2714 217.71 56.2464 217.918 56.003L218.657 55.1362C219.148 55.4208 219.654 55.6615 220.173 55.8538L219.991 56.9789C219.94 57.2953 220.163 57.6019 220.488 57.6639L222.522 58.0506C222.846 58.1125 223.151 57.9067 223.202 57.5908L223.387 56.4597C223.937 56.4694 224.484 56.4323 225.023 56.3479L225.445 57.4401C225.562 57.7442 225.905 57.9061 226.211 57.8019L228.123 57.151C228.429 57.047 228.582 56.7164 228.465 56.4125L228.045 55.3157C228.508 55.0588 228.949 54.7574 229.365 54.4153L230.284 55.1832C230.538 55.3946 230.91 55.3698 231.116 55.128L232.406 53.6159C232.612 53.374 232.574 53.0062 232.322 52.7942L231.396 52.0182C231.663 51.5554 231.886 51.075 232.062 50.5812L233.241 50.812C233.563 50.875 233.866 50.6702 233.919 50.3544L234.247 48.378C234.3 48.061 234.081 47.753 233.759 47.6893ZM227.884 51.1609C225.795 53.6111 222.007 53.8589 219.414 51.7056C216.809 49.5428 216.396 45.78 218.502 43.3099C220.609 40.8398 224.423 40.6141 227.011 42.7968C229.587 44.9699 229.973 48.7107 227.884 51.1609Z" fill="white"/>
<defs>
<linearGradient id="paint0_linear_6550_29766" x1="120.814" y1="244.287" x2="101.803" y2="252.272" gradientUnits="userSpaceOnUse">
<stop stop-color="#CFCFCF"/>
<stop offset="0.9964" stop-color="#CCCCCC"/>
</linearGradient>
<linearGradient id="paint1_linear_6550_29766" x1="95.4293" y1="160.5" x2="74.7976" y2="169.166" gradientUnits="userSpaceOnUse">
<stop stop-color="#CECECE"/>
<stop offset="0.9964" stop-color="#9E9E9E"/>
</linearGradient>
<linearGradient id="paint2_linear_6550_29766" x1="6.50287" y1="165.191" x2="197.702" y2="165.191" gradientUnits="userSpaceOnUse">
<stop stop-color="#E3E3E3"/>
<stop offset="0.9964" stop-color="#A9A9A9"/>
</linearGradient>
<linearGradient id="paint3_linear_6550_29766" x1="6.50297" y1="235.895" x2="277.128" y2="235.895" gradientUnits="userSpaceOnUse">
<stop stop-color="#F4F4F4"/>
<stop offset="0.9964" stop-color="#D5D5D5"/>
</linearGradient>
<linearGradient id="paint4_linear_6550_29766" x1="33.043" y1="233.679" x2="231.328" y2="233.679" gradientUnits="userSpaceOnUse">
<stop stop-color="#E0E0E0"/>
<stop offset="0.9964" stop-color="#BBBBBB"/>
</linearGradient>
<linearGradient id="paint5_linear_6550_29766" x1="122.163" y1="138.16" x2="72.9773" y2="241.644" gradientUnits="userSpaceOnUse">
<stop stop-color="#EAEAEA"/>
<stop offset="0.9964" stop-color="#B9B9B9"/>
</linearGradient>
<linearGradient id="paint6_linear_6550_29766" x1="85.6262" y1="175.179" x2="82.0776" y2="237.373" gradientUnits="userSpaceOnUse">
<stop stop-color="#AFAFAF"/>
<stop offset="0.9964" stop-color="#878787"/>
</linearGradient>
<linearGradient id="paint7_linear_6550_29766" x1="130.298" y1="261.716" x2="121.746" y2="264.067" gradientUnits="userSpaceOnUse">
<stop stop-color="#444B8C"/>
<stop offset="0.9964" stop-color="#26264F"/>
</linearGradient>
<linearGradient id="paint8_linear_6550_29766" x1="125" y1="263.084" x2="119.801" y2="256.235" gradientUnits="userSpaceOnUse">
<stop stop-color="#FFC444"/>
<stop offset="0.9964" stop-color="#F36F56"/>
</linearGradient>
<linearGradient id="paint9_linear_6550_29766" x1="116.748" y1="264.85" x2="108.195" y2="267.202" gradientUnits="userSpaceOnUse">
<stop stop-color="#444B8C"/>
<stop offset="0.9964" stop-color="#26264F"/>
</linearGradient>
<linearGradient id="paint10_linear_6550_29766" x1="111.45" y1="266.216" x2="106.251" y2="259.368" gradientUnits="userSpaceOnUse">
<stop stop-color="#FFC444"/>
<stop offset="0.9964" stop-color="#F36F56"/>
</linearGradient>
<linearGradient id="paint11_linear_6550_29766" x1="70.0587" y1="174.291" x2="66.5101" y2="236.485" gradientUnits="userSpaceOnUse">
<stop stop-color="#F2F2F2"/>
<stop offset="0.9964" stop-color="#555555"/>
</linearGradient>
<linearGradient id="paint12_linear_6550_29766" x1="52.0994" y1="223.584" x2="73.5046" y2="196.48" gradientUnits="userSpaceOnUse">
<stop stop-color="#BDBDBD"/>
<stop offset="0.9964" stop-color="#E0E0E9"/>
</linearGradient>
<linearGradient id="paint13_linear_6550_29766" x1="49.2513" y1="173.102" x2="45.7027" y2="235.296" gradientUnits="userSpaceOnUse">
<stop stop-color="#E2E1E6"/>
<stop offset="0.9964" stop-color="#494949"/>
</linearGradient>
<linearGradient id="paint14_linear_6550_29766" x1="82.7568" y1="256.146" x2="112.558" y2="218.412" gradientUnits="userSpaceOnUse">
<stop stop-color="#ECE7E7"/>
<stop offset="1" stop-color="#96848E"/>
</linearGradient>
<linearGradient id="paint15_linear_6550_29766" x1="100.501" y1="221.294" x2="65.9264" y2="259.592" gradientUnits="userSpaceOnUse">
<stop stop-color="#D1CDCD"/>
<stop offset="1" stop-color="#8B8B8B"/>
</linearGradient>
<linearGradient id="paint16_linear_6550_29766" x1="84.2327" y1="231.266" x2="79.3783" y2="217.512" gradientUnits="userSpaceOnUse">
<stop stop-color="#AA4428"/>
<stop offset="1" stop-color="#461B0F"/>
</linearGradient>
<linearGradient id="paint17_linear_6550_29766" x1="63.0264" y1="211.339" x2="64.8063" y2="223.637" gradientUnits="userSpaceOnUse">
<stop stop-color="#702713"/>
<stop offset="1" stop-color="#7B311D"/>
</linearGradient>
<linearGradient id="paint18_linear_6550_29766" x1="62.4922" y1="214.033" x2="72.552" y2="214.033" gradientUnits="userSpaceOnUse">
<stop stop-color="#FFC444"/>
<stop offset="0.9964" stop-color="#F36F56"/>
</linearGradient>
<linearGradient id="paint19_linear_6550_29766" x1="98.2958" y1="212.416" x2="88.8315" y2="198.977" gradientUnits="userSpaceOnUse">
<stop stop-color="#9D4026"/>
<stop offset="0.9964" stop-color="#651D09"/>
</linearGradient>
<linearGradient id="paint20_linear_6550_29766" x1="80.1422" y1="234.657" x2="100.854" y2="192.585" gradientUnits="userSpaceOnUse">
<stop stop-color="#AA4428"/>
<stop offset="1" stop-color="#C5654B"/>
</linearGradient>
<linearGradient id="paint21_linear_6550_29766" x1="70.0235" y1="207.654" x2="115.525" y2="207.654" gradientUnits="userSpaceOnUse">
<stop stop-color="#AA4428"/>
<stop offset="1" stop-color="#501C0D"/>
</linearGradient>
<linearGradient id="paint22_linear_6550_29766" x1="60.9813" y1="183.973" x2="72.5445" y2="159.897" gradientUnits="userSpaceOnUse">
<stop stop-color="#FFC444"/>
<stop offset="0.9964" stop-color="#F36F56"/>
</linearGradient>
<linearGradient id="paint23_linear_6550_29766" x1="59.9748" y1="176.15" x2="70.8436" y2="161.124" gradientUnits="userSpaceOnUse">
<stop stop-color="#311944"/>
<stop offset="1" stop-color="#6B3976"/>
</linearGradient>
<linearGradient id="paint24_linear_6550_29766" x1="68.839" y1="165.571" x2="63.7819" y2="190.233" gradientUnits="userSpaceOnUse">
<stop stop-color="#FFC444"/>
<stop offset="0.9964" stop-color="#F36F56"/>
</linearGradient>
<linearGradient id="paint25_linear_6550_29766" x1="61.7797" y1="177.466" x2="72.6591" y2="162.425" gradientUnits="userSpaceOnUse">
<stop stop-color="#311944"/>
<stop offset="1" stop-color="#6B3976"/>
</linearGradient>
<linearGradient id="paint26_linear_6550_29766" x1="70.8134" y1="169.038" x2="69.6874" y2="172.004" gradientUnits="userSpaceOnUse">
<stop stop-color="#FFC444"/>
<stop offset="1" stop-color="#F36F56"/>
</linearGradient>
<linearGradient id="paint27_linear_6550_29766" x1="160" y1="67.9796" x2="245.311" y2="67.9796" gradientUnits="userSpaceOnUse">
<stop stop-color="#E69E8B"/>
<stop offset="0.9964" stop-color="#40190F"/>
</linearGradient>
<linearGradient id="paint28_linear_6550_29766" x1="228.282" y1="23.1386" x2="183.865" y2="121.129" gradientUnits="userSpaceOnUse">
<stop stop-color="#F9AC80"/>
<stop offset="0.9964" stop-color="#D79361"/>
</linearGradient>
<linearGradient id="paint29_linear_6550_29766" x1="181.341" y1="109.914" x2="204.482" y2="73.1599" gradientUnits="userSpaceOnUse">
<stop stop-color="#FFCBA6"/>
<stop offset="0.9964" stop-color="#AA4428"/>
</linearGradient>
<linearGradient id="paint30_linear_6550_29766" x1="191.566" y1="55.8053" x2="226.072" y2="129.056" gradientUnits="userSpaceOnUse">
<stop stop-color="#FFE2C7"/>
<stop offset="0.9964" stop-color="#AA4428"/>
</linearGradient>
</defs>
</svg>
