<svg width="32" height="32" viewBox="0 0 32 32" fill="none" xmlns="http://www.w3.org/2000/svg">
<rect x="0.8125" y="0.75293" width="30.3763" height="30.3763" rx="5.95613" fill="#E6E6E6"/>
<path fill-rule="evenodd" clip-rule="evenodd" d="M21.2393 11.1634C19.9115 9.82632 18.1413 9.0918 16.2561 9.0918C12.3744 9.0918 9.21218 12.2601 9.2088 16.1493C9.2088 17.395 9.53313 18.6068 10.148 19.6798L9.15137 23.3389L12.8879 22.3572C13.9183 22.9191 15.0771 23.217 16.2561 23.217H16.2595C20.1413 23.217 23.3035 20.0487 23.3068 16.1561C23.3035 14.2707 22.5703 12.497 21.2393 11.1634ZM16.2561 22.0221C15.2021 22.0221 14.1717 21.7378 13.273 21.203L13.0602 21.0744L10.8439 21.6566L11.4352 19.4902L11.2966 19.2668C10.7088 18.3326 10.4014 17.2528 10.4014 16.1459C10.4014 12.9167 13.0298 10.2833 16.2595 10.2833C17.8237 10.2833 19.2933 10.896 20.4014 12.0028C21.5061 13.1131 22.1143 14.5855 22.1143 16.1527C22.1109 19.3921 19.4825 22.0221 16.2561 22.0221ZM19.469 17.6285C19.2933 17.5405 18.4284 17.114 18.2663 17.0531C18.1041 16.9955 17.9859 16.9651 17.871 17.1411C17.7528 17.3171 17.4149 17.7165 17.3136 17.8316C17.2122 17.9501 17.1075 17.9636 16.9318 17.8756C16.7561 17.7876 16.1886 17.6014 15.5163 16.9989C14.9926 16.5318 14.6413 15.953 14.5365 15.777C14.4352 15.601 14.5264 15.5062 14.6142 15.4182C14.6919 15.3403 14.7899 15.2117 14.8777 15.1102C14.9656 15.0086 14.996 14.9341 15.0534 14.8157C15.1109 14.6972 15.0838 14.5957 15.0399 14.5076C14.996 14.4196 14.6446 13.5497 14.496 13.1977C14.3541 12.8524 14.2088 12.8998 14.1007 12.8964C13.9994 12.8897 13.8811 12.8897 13.7629 12.8897C13.6446 12.8897 13.4554 12.9337 13.2933 13.1097C13.1311 13.2857 12.6784 13.7122 12.6784 14.5821C12.6784 15.452 13.3102 16.2881 13.398 16.4066C13.4858 16.525 14.6379 18.3055 16.4048 19.0705C16.8237 19.2533 17.1514 19.3616 17.4082 19.4428C17.8305 19.5782 18.2122 19.5579 18.5163 19.5139C18.8541 19.4631 19.5568 19.0874 19.7055 18.6745C19.8507 18.2615 19.8507 17.9095 19.8068 17.835C19.7629 17.7605 19.6447 17.7165 19.469 17.6285Z" fill="#818181"/>
</svg>
